<?xml version="1.0" encoding="UTF-8" standalone="no"?><svg xmlns="http://www.w3.org/2000/svg" xmlns:xlink="http://www.w3.org/1999/xlink" contentScriptType="application/ecmascript" contentStyleType="text/css" height="487px" preserveAspectRatio="none" style="width:541px;height:487px;" version="1.1" viewBox="0 0 541 487" width="541px" zoomAndPan="magnify"><defs/><g><text fill="#000000" font-family="sans-serif" font-size="18" lengthAdjust="spacingAndGlyphs" textLength="527" x="2" y="17.4023">Keyple Plugin - Abstract Reader classes- 1.0.0 (10/11/2020)</text><!--MD5=[3fb92fba1735106d511c1d05a9f83ed2]
cluster root--><polygon fill="#FFFFFF" points="69.5,93.1992,284.5,93.1992,291.5,115.6875,449.5,115.6875,449.5,475.1992,69.5,475.1992,69.5,93.1992" style="stroke: #000000; stroke-width: 1.5;"/><line style="stroke: #000000; stroke-width: 1.5;" x1="69.5" x2="291.5" y1="115.6875" y2="115.6875"/><text fill="#000000" font-family="sans-serif" font-size="14" font-weight="bold" lengthAdjust="spacingAndGlyphs" textLength="209" x="73.5" y="108.7344">org.eclipse.keyple.core.plugin</text><!--MD5=[9d4f2f8fc0ef5fca8dbaabf8542dfdf0]
cluster reader--><polygon fill="#FFFFFF" points="93.5,136.1992,144.5,136.1992,151.5,158.6875,425.5,158.6875,425.5,451.1992,93.5,451.1992,93.5,136.1992" style="stroke: #000000; stroke-width: 1.5;"/><line style="stroke: #000000; stroke-width: 1.5;" x1="93.5" x2="151.5" y1="158.6875" y2="158.6875"/><text fill="#000000" font-family="sans-serif" font-size="14" font-weight="bold" lengthAdjust="spacingAndGlyphs" textLength="45" x="97.5" y="151.7344">reader</text><!--MD5=[4fdbbc41fb87080aa93900a035a2087b]
class AbstractLocalReader--><rect fill="#FEFECE" height="48" id="AbstractLocalReader" style="stroke: #D4AC0D; stroke-width: 1.5;" width="162" x="178.5" y="171.1992"/><ellipse cx="193.5" cy="187.1992" fill="#A9DCDF" rx="11" ry="11" style="stroke: #A9DCDF; stroke-width: 1.0;"/><path d="M193.6133,182.7974 L192.4595,187.8691 L194.7754,187.8691 Z M192.1191,180.5562 L195.1157,180.5562 L198.4609,192.9492 L196.0122,192.9492 L195.2485,189.8862 L191.9697,189.8862 L191.2227,192.9492 L188.7739,192.9492 Z "/><ellipse cx="212.5" cy="186.6992" fill="#84BE84" rx="3" ry="3" style="stroke: #038048; stroke-width: 1.0;"/><text fill="#000000" font-family="sans-serif" font-size="12" font-style="italic" lengthAdjust="spacingAndGlyphs" textLength="119" x="218.5" y="191.7344">AbstractLocalReader</text><line style="stroke: #D4AC0D; stroke-width: 1.5;" x1="179.5" x2="339.5" y1="203.1992" y2="203.1992"/><line style="stroke: #D4AC0D; stroke-width: 1.5;" x1="179.5" x2="339.5" y1="211.1992" y2="211.1992"/><!--MD5=[def8a4ded3d9320d2eb123b929637efb]
class AbstractObservableLocalReader--><rect fill="#FEFECE" height="48" id="AbstractObservableLocalReader" style="stroke: #D4AC0D; stroke-width: 1.5;" width="228" x="145.5" y="279.1992"/><ellipse cx="160.5" cy="295.1992" fill="#A9DCDF" rx="11" ry="11" style="stroke: #A9DCDF; stroke-width: 1.0;"/><path d="M160.6133,290.7974 L159.4595,295.8691 L161.7754,295.8691 Z M159.1191,288.5562 L162.1157,288.5562 L165.4609,300.9492 L163.0122,300.9492 L162.2485,297.8862 L158.9697,297.8862 L158.2227,300.9492 L155.7739,300.9492 Z "/><ellipse cx="179.5" cy="294.6992" fill="#84BE84" rx="3" ry="3" style="stroke: #038048; stroke-width: 1.0;"/><text fill="#000000" font-family="sans-serif" font-size="12" font-style="italic" lengthAdjust="spacingAndGlyphs" textLength="185" x="185.5" y="299.7344">AbstractObservableLocalReader</text><line style="stroke: #D4AC0D; stroke-width: 1.5;" x1="146.5" x2="372.5" y1="311.1992" y2="311.1992"/><line style="stroke: #D4AC0D; stroke-width: 1.5;" x1="146.5" x2="372.5" y1="319.1992" y2="319.1992"/><!--MD5=[34891f06ccd0320e1c8ac15ae4f49f6d]
class AbstractObservableLocalAutonomousReader--><rect fill="#FEFECE" height="48" id="AbstractObservableLocalAutonomousReader" style="stroke: #D4AC0D; stroke-width: 1.5;" width="299" x="110" y="387.1992"/><ellipse cx="125" cy="403.1992" fill="#A9DCDF" rx="11" ry="11" style="stroke: #A9DCDF; stroke-width: 1.0;"/><path d="M125.1133,398.7974 L123.9595,403.8691 L126.2754,403.8691 Z M123.6191,396.5562 L126.6157,396.5562 L129.9609,408.9492 L127.5122,408.9492 L126.7485,405.8862 L123.4697,405.8862 L122.7227,408.9492 L120.2739,408.9492 Z "/><ellipse cx="144" cy="402.6992" fill="#84BE84" rx="3" ry="3" style="stroke: #038048; stroke-width: 1.0;"/><text fill="#000000" font-family="sans-serif" font-size="12" font-style="italic" lengthAdjust="spacingAndGlyphs" textLength="256" x="150" y="407.7344">AbstractObservableLocalAutonomousReader</text><line style="stroke: #D4AC0D; stroke-width: 1.5;" x1="111" x2="408" y1="419.1992" y2="419.1992"/><line style="stroke: #D4AC0D; stroke-width: 1.5;" x1="111" x2="408" y1="427.1992" y2="427.1992"/><!--MD5=[96a4004012a1c08588eb87adf87ec875]
class ProxyReader--><rect fill="#FEFECE" height="48" id="ProxyReader" style="stroke: #D4AC0D; stroke-width: 1.5;" width="117" x="201" y="29.1992"/><ellipse cx="216" cy="45.1992" fill="#B4A7E5" rx="11" ry="11" style="stroke: #B4A7E5; stroke-width: 1.0;"/><path d="M212.4277,41.4644 L212.4277,39.3062 L219.8071,39.3062 L219.8071,41.4644 L217.3418,41.4644 L217.3418,49.541 L219.8071,49.541 L219.8071,51.6992 L212.4277,51.6992 L212.4277,49.541 L214.8931,49.541 L214.8931,41.4644 Z "/><ellipse cx="235" cy="44.6992" fill="#84BE84" rx="3" ry="3" style="stroke: #038048; stroke-width: 1.0;"/><text fill="#000000" font-family="sans-serif" font-size="12" font-style="italic" lengthAdjust="spacingAndGlyphs" textLength="74" x="241" y="49.7344">ProxyReader</text><line style="stroke: #D4AC0D; stroke-width: 1.5;" x1="202" x2="317" y1="61.1992" y2="61.1992"/><line style="stroke: #D4AC0D; stroke-width: 1.5;" x1="202" x2="317" y1="69.1992" y2="69.1992"/><!--MD5=[e4c0ac54a9083fbe9a1d228747ed8ef4]
reverse link ProxyReader to AbstractLocalReader--><path d="M259.5,97.3992 C259.5,121.6992 259.5,151.0792 259.5,171.0492 " fill="none" id="ProxyReader&lt;-AbstractLocalReader" style="stroke: #27AE60; stroke-width: 1.0;"/><polygon fill="none" points="252.5,97.3192,259.5,77.3192,266.5,97.3192,252.5,97.3192" style="stroke: #27AE60; stroke-width: 1.0;"/><!--MD5=[9b55259d343559c02d7b29a233fd666f]
reverse link AbstractLocalReader to AbstractObservableLocalReader--><path d="M259.5,239.2192 C259.5,252.7792 259.5,267.2392 259.5,278.8792 " fill="none" id="AbstractLocalReader&lt;-AbstractObservableLocalReader" style="stroke: #27AE60; stroke-width: 1.0;"/><polygon fill="none" points="252.5,239.1992,259.5,219.1992,266.5,239.1992,252.5,239.1992" style="stroke: #27AE60; stroke-width: 1.0;"/><!--MD5=[b3aad059e1b02bddbca331dba0a22b48]
reverse link AbstractObservableLocalReader to AbstractObservableLocalAutonomousReader--><path d="M259.5,347.2192 C259.5,360.7792 259.5,375.2392 259.5,386.8792 " fill="none" id="AbstractObservableLocalReader&lt;-AbstractObservableLocalAutonomousReader" style="stroke: #27AE60; stroke-width: 1.0;"/><polygon fill="none" points="252.5,347.1992,259.5,327.1992,266.5,347.1992,252.5,347.1992" style="stroke: #27AE60; stroke-width: 1.0;"/><!--MD5=[6aee1c50212bee4c883049cf20c6b881]
@startuml
title
    Keyple Plugin - Abstract Reader classes- 1.0.0 (10/11/2020)
end title



skinparam Shadowing false
skinparam ClassFontStyle italic
skinparam ClassBorderColor #D4AC0D
skinparam stereotypeABorderColor #A9DCDF
skinparam stereotypeIBorderColor #B4A7E5
skinparam stereotypeCBorderColor #ADD1B2
skinparam stereotypeEBorderColor #EB93DF
skinparam ClassBackgroundColor<<red>> #FDEDEC
skinparam ClassBorderColor<<red>> #E74C3C
hide <<red>> stereotype
skinparam ClassBackgroundColor<<purple>> #F4ECF7
skinparam ClassBorderColor<<purple>> #8E44AD
hide <<purple>> stereotype
skinparam ClassBackgroundColor<<blue>> #EBF5FB
skinparam ClassBorderColor<<blue>> #3498DB
hide <<blue>> stereotype
skinparam ClassBackgroundColor<<green>> #E9F7EF
skinparam ClassBorderColor<<green>> #27AE60
hide <<green>> stereotype
skinparam ClassBackgroundColor<<grey>> #EAECEE
skinparam ClassBorderColor<<grey>> #2C3E50
hide <<grey>> stereotype

+interface ProxyReader {
}

package "org.eclipse.keyple.core.plugin" as root {

    package "reader"{

        +abstract class AbstractLocalReader{

         }

         +abstract class AbstractObservableLocalReader{

         }

         +abstract class AbstractObservableLocalAutonomousReader{

         }
    }
}


ProxyReader <|- - AbstractLocalReader #27AE60
AbstractLocalReader <|- - AbstractObservableLocalReader #27AE60
AbstractObservableLocalReader <|- - AbstractObservableLocalAutonomousReader #27AE60


@enduml

PlantUML version 1.2020.09(Sun May 10 12:51:06 CEST 2020)
(GPL source distribution)
Java Runtime: OpenJDK Runtime Environment
JVM: OpenJDK 64-Bit Server VM
Java Version: 11.0.6+8-b520.43
Operating System: Mac OS X
Default Encoding: UTF-8
Language: fr
Country: FR
--></g></svg>