<?xml version="1.0" encoding="UTF-8" standalone="no"?><svg xmlns="http://www.w3.org/2000/svg" xmlns:xlink="http://www.w3.org/1999/xlink" contentScriptType="application/ecmascript" contentStyleType="text/css" height="429px" preserveAspectRatio="none" style="width:535px;height:429px;" version="1.1" viewBox="0 0 535 429" width="535px" zoomAndPan="magnify"><defs/><g><text fill="#000000" font-family="sans-serif" font-size="18" lengthAdjust="spacingAndGlyphs" textLength="521" x="2" y="17.4023">Keyple Plugin - Abstract Plugin classes- 1.0.0 (10/11/2020)</text><!--MD5=[3fb92fba1735106d511c1d05a9f83ed2]
cluster root--><polygon fill="#FFFFFF" points="67.5,210.1992,282.5,210.1992,289.5,232.6875,445.5,232.6875,445.5,417.1992,67.5,417.1992,67.5,210.1992" style="stroke: #000000; stroke-width: 1.5;"/><line style="stroke: #000000; stroke-width: 1.5;" x1="67.5" x2="289.5" y1="232.6875" y2="232.6875"/><text fill="#000000" font-family="sans-serif" font-size="14" font-weight="bold" lengthAdjust="spacingAndGlyphs" textLength="209" x="71.5" y="225.7344">org.eclipse.keyple.core.plugin</text><!--MD5=[c954dac450f15cb071150cf9e7905da6]
class ObservablePluginNotifier--><rect fill="#FEFECE" height="48" id="ObservablePluginNotifier" style="stroke: #D4AC0D; stroke-width: 1.5;" width="185" x="84" y="245.1992"/><ellipse cx="99" cy="261.1992" fill="#B4A7E5" rx="11" ry="11" style="stroke: #B4A7E5; stroke-width: 1.0;"/><path d="M95.4277,257.4644 L95.4277,255.3062 L102.8071,255.3062 L102.8071,257.4644 L100.3418,257.4644 L100.3418,265.541 L102.8071,265.541 L102.8071,267.6992 L95.4277,267.6992 L95.4277,265.541 L97.8931,265.541 L97.8931,257.4644 Z "/><ellipse cx="118" cy="260.6992" fill="#84BE84" rx="3" ry="3" style="stroke: #038048; stroke-width: 1.0;"/><text fill="#000000" font-family="sans-serif" font-size="12" font-style="italic" lengthAdjust="spacingAndGlyphs" textLength="142" x="124" y="265.7344">ObservablePluginNotifier</text><line style="stroke: #D4AC0D; stroke-width: 1.5;" x1="85" x2="268" y1="277.1992" y2="277.1992"/><line style="stroke: #D4AC0D; stroke-width: 1.5;" x1="85" x2="268" y1="285.1992" y2="285.1992"/><!--MD5=[d65a81ff17c705555c4513b7aa66e708]
class AbstractPlugin--><rect fill="#FEFECE" height="48" id="AbstractPlugin" style="stroke: #D4AC0D; stroke-width: 1.5;" width="125" x="304" y="245.1992"/><ellipse cx="319" cy="261.1992" fill="#A9DCDF" rx="11" ry="11" style="stroke: #A9DCDF; stroke-width: 1.0;"/><path d="M319.1133,256.7974 L317.9595,261.8691 L320.2754,261.8691 Z M317.6191,254.5562 L320.6157,254.5562 L323.9609,266.9492 L321.5122,266.9492 L320.7485,263.8862 L317.4697,263.8862 L316.7227,266.9492 L314.2739,266.9492 Z "/><ellipse cx="338" cy="260.6992" fill="#84BE84" rx="3" ry="3" style="stroke: #038048; stroke-width: 1.0;"/><text fill="#000000" font-family="sans-serif" font-size="12" font-style="italic" lengthAdjust="spacingAndGlyphs" textLength="82" x="344" y="265.7344">AbstractPlugin</text><line style="stroke: #D4AC0D; stroke-width: 1.5;" x1="305" x2="428" y1="277.1992" y2="277.1992"/><line style="stroke: #D4AC0D; stroke-width: 1.5;" x1="305" x2="428" y1="285.1992" y2="285.1992"/><!--MD5=[afe9b948530cb52da59ce106d3726d7e]
class AbstractThreadedObservablePlugin--><rect fill="#FEFECE" height="48" id="AbstractThreadedObservablePlugin" style="stroke: #D4AC0D; stroke-width: 1.5;" width="248" x="132.5" y="353.1992"/><ellipse cx="147.5" cy="369.1992" fill="#A9DCDF" rx="11" ry="11" style="stroke: #A9DCDF; stroke-width: 1.0;"/><path d="M147.6133,364.7974 L146.4595,369.8691 L148.7754,369.8691 Z M146.1191,362.5562 L149.1157,362.5562 L152.4609,374.9492 L150.0122,374.9492 L149.2485,371.8862 L145.9697,371.8862 L145.2227,374.9492 L142.7739,374.9492 Z "/><ellipse cx="166.5" cy="368.6992" fill="#84BE84" rx="3" ry="3" style="stroke: #038048; stroke-width: 1.0;"/><text fill="#000000" font-family="sans-serif" font-size="12" font-style="italic" lengthAdjust="spacingAndGlyphs" textLength="205" x="172.5" y="373.7344">AbstractThreadedObservablePlugin</text><line style="stroke: #D4AC0D; stroke-width: 1.5;" x1="133.5" x2="379.5" y1="385.1992" y2="385.1992"/><line style="stroke: #D4AC0D; stroke-width: 1.5;" x1="133.5" x2="379.5" y1="393.1992" y2="393.1992"/><!--MD5=[b628511dd50102041730ee0512f882c8]
class Plugin--><rect fill="#FEFECE" height="48" id="Plugin" style="stroke: #D4AC0D; stroke-width: 1.5;" width="77" x="232" y="29.1992"/><ellipse cx="247" cy="45.1992" fill="#B4A7E5" rx="11" ry="11" style="stroke: #B4A7E5; stroke-width: 1.0;"/><path d="M243.4277,41.4644 L243.4277,39.3062 L250.8071,39.3062 L250.8071,41.4644 L248.3418,41.4644 L248.3418,49.541 L250.8071,49.541 L250.8071,51.6992 L243.4277,51.6992 L243.4277,49.541 L245.8931,49.541 L245.8931,41.4644 Z "/><ellipse cx="266" cy="44.6992" fill="#84BE84" rx="3" ry="3" style="stroke: #038048; stroke-width: 1.0;"/><text fill="#000000" font-family="sans-serif" font-size="12" font-style="italic" lengthAdjust="spacingAndGlyphs" textLength="34" x="272" y="49.7344">Plugin</text><line style="stroke: #D4AC0D; stroke-width: 1.5;" x1="233" x2="308" y1="61.1992" y2="61.1992"/><line style="stroke: #D4AC0D; stroke-width: 1.5;" x1="233" x2="308" y1="69.1992" y2="69.1992"/><!--MD5=[1fa9a61019755e60a0cb03f0bc3590aa]
class ObservablePlugin--><rect fill="#FEFECE" height="48" id="ObservablePlugin" style="stroke: #D4AC0D; stroke-width: 1.5;" width="143" x="137" y="137.1992"/><ellipse cx="152" cy="153.1992" fill="#B4A7E5" rx="11" ry="11" style="stroke: #B4A7E5; stroke-width: 1.0;"/><path d="M148.4277,149.4644 L148.4277,147.3062 L155.8071,147.3062 L155.8071,149.4644 L153.3418,149.4644 L153.3418,157.541 L155.8071,157.541 L155.8071,159.6992 L148.4277,159.6992 L148.4277,157.541 L150.8931,157.541 L150.8931,149.4644 Z "/><ellipse cx="171" cy="152.6992" fill="#84BE84" rx="3" ry="3" style="stroke: #038048; stroke-width: 1.0;"/><text fill="#000000" font-family="sans-serif" font-size="12" font-style="italic" lengthAdjust="spacingAndGlyphs" textLength="100" x="177" y="157.7344">ObservablePlugin</text><line style="stroke: #D4AC0D; stroke-width: 1.5;" x1="138" x2="279" y1="169.1992" y2="169.1992"/><line style="stroke: #D4AC0D; stroke-width: 1.5;" x1="138" x2="279" y1="177.1992" y2="177.1992"/><!--MD5=[75676cd63a2ad0ea5e52d64473c6b717]
reverse link Plugin to AbstractPlugin--><path d="M289.26,96.0292 C309.22,140.4992 340.05,209.2392 356.06,244.9192 " fill="none" id="Plugin&lt;-AbstractPlugin" style="stroke: #27AE60; stroke-width: 1.0;"/><polygon fill="none" points="282.76,98.6192,280.96,77.5092,295.53,92.8892,282.76,98.6192" style="stroke: #27AE60; stroke-width: 1.0;"/><!--MD5=[5e8e45394d7e77d0f64d0eeead031281]
reverse link AbstractPlugin to AbstractThreadedObservablePlugin--><path d="M327.81,307.4792 C312.13,322.5892 294.51,339.5792 280.7,352.8792 " fill="none" id="AbstractPlugin&lt;-AbstractThreadedObservablePlugin" style="stroke: #27AE60; stroke-width: 1.0;"/><polygon fill="none" points="323.37,302.0392,342.63,293.1992,333.09,312.1192,323.37,302.0392" style="stroke: #27AE60; stroke-width: 1.0;"/><!--MD5=[550a12816f88094ca7e979a72eedae9c]
reverse link Plugin to ObservablePlugin--><path d="M246.75,94.8092 C238.42,109.0492 229.35,124.5492 222.14,136.8792 " fill="none" id="Plugin&lt;-ObservablePlugin" style="stroke: #27AE60; stroke-width: 1.0;"/><polygon fill="none" points="240.91,90.9292,257.05,77.1992,252.99,97.9992,240.91,90.9292" style="stroke: #27AE60; stroke-width: 1.0;"/><!--MD5=[2aa0cf8d008f231bd91dbaf190dd6f7a]
reverse link ObservablePlugin to ObservablePluginNotifier--><path d="M195.66,204.7392 C191.52,218.4292 187.1,233.0992 183.54,244.8792 " fill="none" id="ObservablePlugin&lt;-ObservablePluginNotifier" style="stroke: #27AE60; stroke-width: 1.0;"/><polygon fill="none" points="189.08,202.3192,201.56,185.1992,202.48,206.3692,189.08,202.3192" style="stroke: #27AE60; stroke-width: 1.0;"/><!--MD5=[af0f7b676a1a8f664b6d0dc929f6bf46]
reverse link ObservablePluginNotifier to AbstractThreadedObservablePlugin--><path d="M206.07,309.3792 C217.1,323.9992 229.28,340.1292 238.9,352.8792 " fill="none" id="ObservablePluginNotifier&lt;-AbstractThreadedObservablePlugin" style="stroke: #27AE60; stroke-width: 1.0;"/><polygon fill="none" points="200.32,313.3792,193.86,293.1992,211.49,304.9492,200.32,313.3792" style="stroke: #27AE60; stroke-width: 1.0;"/><!--MD5=[9d0ea9870089f8fbea72b4d54f6815ac]
@startuml
title
    Keyple Plugin - Abstract Plugin classes- 1.0.0 (10/11/2020)
end title



skinparam Shadowing false
skinparam ClassFontStyle italic
skinparam ClassBorderColor #D4AC0D
skinparam stereotypeABorderColor #A9DCDF
skinparam stereotypeIBorderColor #B4A7E5
skinparam stereotypeCBorderColor #ADD1B2
skinparam stereotypeEBorderColor #EB93DF
skinparam ClassBackgroundColor<<red>> #FDEDEC
skinparam ClassBorderColor<<red>> #E74C3C
hide <<red>> stereotype
skinparam ClassBackgroundColor<<purple>> #F4ECF7
skinparam ClassBorderColor<<purple>> #8E44AD
hide <<purple>> stereotype
skinparam ClassBackgroundColor<<blue>> #EBF5FB
skinparam ClassBorderColor<<blue>> #3498DB
hide <<blue>> stereotype
skinparam ClassBackgroundColor<<green>> #E9F7EF
skinparam ClassBorderColor<<green>> #27AE60
hide <<green>> stereotype
skinparam ClassBackgroundColor<<grey>> #EAECEE
skinparam ClassBorderColor<<grey>> #2C3E50
hide <<grey>> stereotype


+interface Plugin {

}

+interface ObservablePlugin{
}

package "org.eclipse.keyple.core.plugin" as root {

    +interface ObservablePluginNotifier {
    }

     +abstract class AbstractPlugin{


    }

    +abstract class AbstractThreadedObservablePlugin {

    }
}


Plugin <|- - AbstractPlugin #27AE60
AbstractPlugin <|- - AbstractThreadedObservablePlugin #27AE60
Plugin <|- - ObservablePlugin #27AE60
ObservablePlugin <|- - ObservablePluginNotifier #27AE60
ObservablePluginNotifier <|- - AbstractThreadedObservablePlugin #27AE60
@enduml

PlantUML version 1.2020.09(Sun May 10 12:51:06 CEST 2020)
(GPL source distribution)
Java Runtime: OpenJDK Runtime Environment
JVM: OpenJDK 64-Bit Server VM
Java Version: 11.0.6+8-b520.43
Operating System: Mac OS X
Default Encoding: UTF-8
Language: fr
Country: FR
--></g></svg>